<svg width="285" height="462" viewBox="0 0 285 462" fill="none" xmlns="http://www.w3.org/2000/svg">
<path d="M5.00911 29.7955C5.00911 13.3399 18.349 5.82273e-07 34.8046 1.30054e-06L50.8016 1.99879e-06C58.4222 2.33143e-06 64.6 6.17778 64.6 13.7985V13.7985C64.6 21.4191 70.7778 27.5969 78.3985 27.5969L206.602 27.5969C214.222 27.5969 220.4 21.4191 220.4 13.7985V13.7985C220.4 6.17779 226.578 9.67125e-06 234.198 1.00039e-05L250.195 1.07021e-05C266.651 1.14204e-05 279.991 13.3399 279.991 29.7955L279.991 148.851C279.991 185.647 273.658 213.416 260.991 232.159C248.324 251.017 229.439 260.446 204.336 260.446C191.094 260.446 179.348 257.169 169.1 250.615V250.615C157.375 243.247 134.763 243.62 123.806 252.087C123.084 252.645 122.348 253.189 121.6 253.719C111.006 261.308 98.2818 265.103 83.4273 265.103C58.2091 265.103 38.8061 255.904 25.2182 237.506C11.7455 219.108 5.0091 192.776 5.0091 158.51L5.00911 29.7955ZM222.127 138.33V138.33C222.127 125.565 211.779 115.217 199.015 115.217H192.385C179.621 115.217 169.273 125.565 169.273 138.33V138.33C169.273 159.717 178.082 170.411 195.7 170.411C213.318 170.411 222.127 159.717 222.127 138.33ZM89.6072 115.217C74.8422 115.217 62.8727 127.187 62.8727 141.952V141.952C62.8727 164.029 72.603 175.068 92.0636 175.068C111.524 175.068 121.255 164.029 121.255 141.952V141.952C121.255 127.187 109.285 115.217 94.52 115.217H89.6072Z" fill="#EE9129"/>
<path d="M0 353.855C1.46473e-06 320.393 6.04546 291.474 18.1364 267.097C30.2273 242.834 47.3849 224.092 69.6091 210.868C91.8333 197.645 118.145 191.033 148.545 191.033C175.836 191.033 199.673 196.322 220.055 206.901C240.552 217.595 256.5 232.486 267.9 251.574C279.3 270.776 285 293.141 285 318.669C285 337.871 282.294 354.085 276.882 367.308C274.226 373.853 270.947 379.802 267.044 385.157C261.875 392.248 264.042 403.53 272.39 406.238V406.238C276.922 407.708 279.991 411.93 279.991 416.695V428.669C279.991 443.839 267.694 456.136 252.525 456.136H211.982C194.309 456.136 179.982 441.809 179.982 424.136V420.106C179.982 404.166 192.673 392.227 206.276 383.918C209.051 382.223 211.456 380.308 213.491 378.174C220.515 370.93 224.027 360.581 224.027 347.128C224.027 336.434 221.321 326.66 215.909 317.806C210.612 308.952 202.379 301.88 191.209 296.591C180.155 291.302 165.991 288.657 148.718 288.657C123.039 288.657 103.406 294.751 89.8182 306.94C76.2303 319.243 69.4364 336.721 69.4364 359.374C69.4364 364.199 69.753 368.739 70.3864 372.992C71.4171 379.914 77.7829 384.384 84.7811 384.384V384.384C93.7636 384.384 101.045 377.041 101.045 368.059V368.059C101.045 359.009 108.382 351.612 117.431 351.612H126.955C141.264 351.612 152.864 363.212 152.864 377.521V430C152.864 447.673 138.537 462 120.864 462H43.438C31.6816 462 20.6814 455.613 16.4584 444.641C14.803 440.341 13.2321 435.778 11.7455 430.953C8.0606 418.995 5.18182 406.404 3.10909 393.18C1.03636 379.957 -5.68778e-07 366.848 0 353.855Z" fill="#EE9129"/>
</svg>
